<svg xmlns="http://www.w3.org/2000/svg" xmlns:xlink="http://www.w3.org/1999/xlink" xml:space="preserve" id="logo" x="0" y="0" version="1.1" viewBox="0 0 1193.5 1168.7" width="1193.5"  height="1168.7" ><g><g><defs><path id="SVGID_1_" d="m610 0 2 508 150 83 397-213-47-378z"></path><path id="SVGID_1_" d="m610 0 2 508 150 83 397-213-47-378z"></path><path id="SVGID_00000055671900606820753640000015592721481463310993_" d="M414 569 40 862l83 306 441 1V652z"></path><path id="SVGID_00000068678421289867771320000006444582317465725118_" d="m246 935 273 148 7-170-219-76-61 34z"></path><path id="SVGID_00000087387048169065284070000002864327157529074329_" d="m887 331 60-33v-64L667 84v155z"></path></defs><clipPath id="SVGID_00000126307296922727540240000006713562678813473196_"><use xlink:href="#SVGID_1_" style="overflow: visible;"></use></clipPath><path d="M668 576V71l71-39 286 158v159l-162 89" style="clip-path: url(&quot;#SVGID_00000126307296922727540240000006713562678813473196_&quot;); stroke-miterlimit: 10; stroke-dasharray: 1250; stroke-dashoffset: 0px;" stroke="#35B98A" fill="none" stroke-width="50px"></path></g></g><path d="M169 823 25 744V427l494-274" class="st1" style="stroke-dasharray: 1060; stroke-dashoffset: 0px;" stroke="#35B98A" fill="none" stroke-width="50px"></path><g><g><defs><path id="SVGID_00000055671900606820753640000015592721481463310993_" d="M414 569 40 862l83 306 441 1V652z"></path></defs><clipPath id="SVGID_00000064314614717298015570000009233897507468319902_"><use xlink:href="#SVGID_00000055671900606820753640000015592721481463310993_" style="overflow: visible;"></use></clipPath><path d="m340 728-171 95v159l285 158 72-40V609" style="clip-path: url(&quot;#SVGID_00000064314614717298015570000009233897507468319902_&quot;); stroke-miterlimit: 10; stroke-dasharray: 1250; stroke-dashoffset: 0px;" stroke="#35B98A" fill="none" stroke-width="50px"></path></g></g><path d="m1024 348 145 79v316l-501 278" class="st1" style="stroke-dasharray: 1060; stroke-dashoffset: 0px;" stroke="#35B98A" fill="none" stroke-width="50px"></path><path d="M668 621v479l72 39 285-158V822L519 541" class="st1" style="stroke-dasharray: 1650; stroke-dashoffset: 0px;" stroke="#35B98A" fill="none" stroke-width="50px"></path><path d="M651 615 169 347V188L454 29l72 39v476" class="st1" style="stroke-dasharray: 1650; stroke-dashoffset: 0px;" stroke="#35B98A" fill="none" stroke-width="50px"></path><g><g><defs><path id="SVGID_00000068678421289867771320000006444582317465725118_" d="m246 935 273 148 7-170-219-76-61 34z"></path></defs><clipPath id="SVGID_00000000214869194758429460000003407394741149485987_"><use xlink:href="#SVGID_00000068678421289867771320000006444582317465725118_" style="overflow: visible;"></use></clipPath><path d="m236 861 290 160" style="clip-path: url(&quot;#SVGID_00000000214869194758429460000003407394741149485987_&quot;); stroke-miterlimit: 10; stroke-dasharray: 350; stroke-dashoffset: 0px;" stroke="#35B98A" fill="none" stroke-width="50px"></path></g></g><circle cx="347" cy="723.6" r="53" class="st4" style="translate: none; rotate: none; scale: none; opacity: 1; transform-origin: 0px 0px;" data-svg-origin="544 520.5999755859375" transform="matrix(1,0,0,1,0,0)" fill="#35B98A"></circle><circle cx="846" cy="446.6" r="53" class="st4" style="translate: none; rotate: none; scale: none; opacity: 1; transform-origin: 0px 0px;" data-svg-origin="543 543.6000061035156" transform="matrix(1,0,0,1,0,0)" fill="#35B98A"></circle><g><g><defs><path id="SVGID_00000087387048169065284070000002864327157529074329_" d="m887 331 60-33v-64L667 84v155z"></path></defs><clipPath id="SVGID_00000033327631608024213960000013962732300216444297_"><use xlink:href="#SVGID_00000087387048169065284070000002864327157529074329_" style="overflow: visible;"></use></clipPath><path d="M945 302 667 149" style="clip-path: url(&quot;#SVGID_00000033327631608024213960000013962732300216444297_&quot;); stroke-miterlimit: 10; stroke-dasharray: 350; stroke-dashoffset: 0px;" stroke="#35B98A" fill="none" stroke-width="50px"></path></g></g></svg>